<?xml version="1.0" encoding="UTF-8"?>
<svg id="Layer_1" data-name="Layer 1" xmlns="http://www.w3.org/2000/svg" viewBox="0 0 1912.73 1842.2">
  <defs>
    <style>
      .cls-1 {
        fill: #fff;
        stroke: #c67b2a;
        stroke-miterlimit: 10;
        stroke-width: 6px;
      }

      .cls-2 {
        fill: #f79052;
      }
    </style>
  </defs>
  <circle class="cls-2" cx="974.33" cy="942.25" r="813.18"/>
  <g>
    <path d="M754.74,307.28c10.89-15.52,30.69-32.36,49.81-35.64,51.91-8.89,99.31,50.47,116.64,93.68,22.29,55.58,20.27,178.23-.28,234.61-59.61,163.57-279.22,97.32-259.06-91.55,4.81-45.08,65.54-162.12,92.89-201.1"/>
    <path d="M1043.83,285.29c39.73-7.3,55.19,7.92,79.63,35.01,54.52,60.42,108.96,165.43,90.6,248.03-28.94,130.15-171.75,178.16-230.96,39.33-36.2-84.88-30.53-193.14,13.21-274.17,9.9-18.34,25.48-44.15,47.52-48.2Z"/>
    <path d="M1307.27,432.22c82.82-8.74,156.35,154.44,151.05,223.14-7.88,102.06-149.52,157.62-188.91,52.29-20.39-54.52-41.22-196.69-7.36-245.18,9.29-13.3,28.8-28.52,45.22-30.25Z"/>
    <path d="M551.66,446.06c122.12-16.52,68.95,220.53,38.46,281.16-44.89,89.28-166.86,37.75-180.4-48.72-11.49-73.39,63.48-221.83,141.94-232.45Z"/>
    <path d="M853.47,791.08c22.92,14.65,135.52,116.5,140,140.32,8.34,44.27-32.66,41.61-77.83,48.14-1.97.29-3.17,2.33-2.45,4.19,14.36,37.14,7.32,74.41,59.37,75.83,20.15.55,48.69-21.1,60.68-36.68,22.25-28.94,27.93-61.65,25.51-97.47-.79-11.74-14.37-67.92-14.4-83.38,0-2.12,2.08-3.6,4.09-2.93,23.59,7.86,33.21,42.2,61.38,48.92,43.37,10.34,163.04,9.1,200.9-14.98,18.14-11.53,30.98-45.01,35.91-47.78,21.44-12.07,14.93,33.42,16.77,45.06,7.58,47.85,37.08,96.95,50.98,143.87,55.51,187.39-70.12,334.98-208.94,440.69-21.95,16.71-131.11,87.53-151.77,87.53h-81.41c-5.11,0-9.28-4.08-9.39-9.18l-.11-4.78c-.03-1.19-.77-2.24-1.88-2.66-11.62-4.39-15.5-11.32-23.5-18.47-3.87-3.45-10.18-2.36-12.18,2.42-2.32,5.55,3.38,11.23.91,18.74-3.1,9.43-35.67,7.45-46.71,8.31-8.21.63-23.57,2.8-27.13-5.52-2.32-5.4,2.16-13.47,2.71-20.99.92-12.63-23.37-16.31-35.91-23.84-112.33-67.48-287.76-259.53-323.28-385.52-26.98-95.7-10.43-211.06,76.58-270.16,76.46-51.93,193.5-95.8,278.36-41.56"/>
  </g>
  <g>
    <g>
      <path class="cls-2" d="M975.48,1525.25c7.85-4.51,12.52-7.02,28.31-8.7,6.84-.73,8.51-9.75,2.49-13.06-3.93-2.16-5.25-4.76-8.75-8.18-4.69-4.59-11.23-14.58-14.03-20.57-23.35-49.9-7.05-93.2,35.51-121.62,4.77-3.18.57-10.49-4.6-8.01-2.43,1.17-4.86,2.81-7.18,4.17-55.47,32.44-56.1,109.43-16.47,154.55,2.23,2.54,1.13,6.52-2.1,7.51l-20.99,6.41c-.87.27-1.82.28-2.69.01-24.8-7.76-37.03-34.8-36.94-59.39,0-2.54-2.09-4.59-4.62-4.58h0c-2.52,0-4.56,2.01-4.63,4.53-.25,10.04,2.86,33.14,2.69,38.89-.18,6.37-7.19,14.03-4.38,23.86.8,2.81-1.31,5.63-4.23,5.79l-47.5,2.63c-3.35.19-5.75-3.13-4.58-6.28,6.42-17.24-2.26-39.26-3.48-57.31-3.59-53.12-.1-169.83-28.28-210.61-9.22-13.34-22.73-21.3-33.45-31.92-6.23-6.17-9.44-14.77-9.04-23.54,1.4-30.23,3.6-80.65-17.47-95.78-28.47-20.44-103.08,12.33-101.49-12.76.08-1.31,4.28-8.18,3.5-15.29-.78-7.12-6.14-14.4-6.82-14.72-16.47-7.87,23.36-22.4,29.87-35.49,10.22-20.52,9.77-44.71,17.58-65.51,20.01-53.29,90.97-67.3,138.69-44.89,48.83,22.94,66.85,99.37,75.78,148.87.4,2.23-.87,4.41-3.01,5.18-13.97,5.04-63.9,13.11-71.99,2.71-7.81-10.04-.95-76.89-10.06-98.51-.58-1.38-1.81-2.38-3.27-2.7l-.14-.03c-3.38-.74-6.34,2.35-5.47,5.7,7.48,28.73-2.8,84.44,9.53,99.75,13.4,16.64,34.51,9.95,50.87,7.14,8.36-1.44,16.71,2.57,20.9,9.95,9.51,16.75,24.54,35.46,37.13,47.12,41.67,38.54,108.1,49.74,143.45,95.43,42.28,54.65,34.99,136.48,36.38,203.58.08,4.08,5.02,6.06,7.91,3.17l30.46-30.46c3.28-3.28,8.84-.23,7.8,4.3-8.25,35.81-29.84,65.24-61.38,85.78-6.68,4.35-59.16,31.87-62.64,31.87h-74.8c-4.92,0-6.66-6.52-2.39-8.97Z"/>
      <g>
        <path class="cls-2" d="M1223.83,1010.4h0s-4.36-1.08-5.11-1.27c-7.29-1.8-10.94-2.69-15.14-2.5-3.58.17-6.86.33-9.63,2.69-3.8,3.24-4.03,8.39-4.13,10.42-.32,6.88,3.24,11.99,5.7,15.53,3.83,5.51,8.93,8.95,11.29,10.61,3.73,2.64,7.57,4.65,10.83,8.97.98,1.29,2.07,3.01,2.6,5.35.1.45.57,2.6.05,5.62-.41,2.45-1.26,4.25-3,7.36-2.96,5.3-4.43,7.95-6.23,10.06-2.27,2.67-4.63,5.44-8.82,7.36-3.76,1.73-7.18,1.94-8.9,1.94-2.98,0-5.86,0-8.52-1.65-.13-.08-1.93-1.21-4.37-1.86-.75-.2-1.65-.38-2.45.08-.64.37-.92.98-1.01,1.19-.05.11-.53,1.24,0,2.25.38.73,1.11,1.03,1.5,1.19,5.35,2.22,4.37,1.97,5.22,2.19,3.88,1.05,5.82,1.57,7.47,1.83,4.05.65,6.08.97,8.68.56,4-.64,6.77-2.54,8.66-3.87,3.28-2.31,5.13-4.74,7.09-7.33,0,0,3.18-4.19,6.22-10.36.05-.11.48-.98,1.08-2.2.39-.79.71-1.43.91-1.82v-59.46"/>
        <path class="cls-2" d="M1223.83,1010.4h0s4.36-1.08,5.11-1.27c7.29-1.8,10.94-2.69,15.14-2.5,3.58.17,6.86.33,9.63,2.69,3.8,3.24,4.03,8.39,4.13,10.42.32,6.88-3.24,11.99-5.7,15.53-3.83,5.51-8.93,8.95-11.29,10.61-3.73,2.64-7.57,4.65-10.83,8.97-.98,1.29-2.07,3.01-2.6,5.35-.1.45-.57,2.6-.05,5.62.41,2.45,1.26,4.25,3,7.36,2.96,5.3,4.43,7.95,6.23,10.06,2.27,2.67,4.63,5.44,8.82,7.36,3.76,1.73,7.18,1.94,8.9,1.94,2.98,0,5.86,0,8.52-1.65.13-.08,1.93-1.21,4.37-1.86.75-.2,1.65-.38,2.45.08.64.37.92.98,1.01,1.19.05.11.53,1.24,0,2.25-.38.73-1.11,1.03-1.5,1.19-5.35,2.22-4.37,1.97-5.22,2.19-3.88,1.05-5.82,1.57-7.47,1.83-4.05.65-6.08.97-8.68.56-4-.64-6.77-2.54-8.66-3.87-3.28-2.31-5.13-4.74-7.09-7.33,0,0-3.18-4.19-6.22-10.36-.05-.11-.48-.98-1.08-2.2-.39-.79-.71-1.43-.91-1.82,0-19.82,0-39.64,0-59.46"/>
      </g>
    </g>
    <rect class="cls-2" x="1291.37" y="1047.45" width="62.59" height="5.62" rx="2.81" ry="2.81" transform="translate(-143.24 211.45) rotate(-8.67)"/>
    <rect class="cls-2" x="1291.37" y="1078.74" width="62.59" height="5.62" rx="2.81" ry="2.81" transform="translate(361.81 -331.23) rotate(16.51)"/>
    <rect class="cls-2" x="1094.83" y="1044.61" width="62.59" height="5.62" rx="2.81" ry="2.81" transform="translate(2081.43 2252.67) rotate(-171.33)"/>
    <rect class="cls-2" x="1095.91" y="1075.9" width="62.59" height="5.62" rx="2.81" ry="2.81" transform="translate(2456.51 1895.5) rotate(167.83)"/>
  </g>
  <g>
    <path class="cls-1" d="M592.35,1600.84c-1.38-6.58.24-14.68,4.85-24.32,8.18-17.1,26.01-35.58,53.47-55.43-2.73-2.37-5.28-4.12-7.66-5.26-5.3-2.54-10.44-3.27-15.42-2.19-4.98,1.08-8.44,3.68-10.41,7.79-1.09,2.27-1.41,4.48-.97,6.62.44,2.14,1.52,3.62,3.26,4.45-.19,1.5-.47,2.64-.83,3.39-1.24,2.6-3.46,4.86-6.65,6.8-3.19,1.94-6.89,3.06-11.09,3.37-4.21.32-8.48-.56-12.81-2.64-6.39-3.06-10.25-7.76-11.6-14.13-1.35-6.36-.44-12.85,2.72-19.45,3.83-8.01,9.9-14.22,18.19-18.63,8.3-4.41,17.88-6.51,28.75-6.29,10.87.21,21.83,2.96,32.87,8.25,8.44,4.04,13.81,8.18,16.12,12.4,2.3,4.23,2.21,8.94-.28,14.13-1.4,2.92-3.73,6.4-6.98,10.43l-2.92,3.59c-10.45,13.22-17.7,22.53-21.74,27.91-4.04,5.38-6.84,9.7-8.39,12.95-1.24,2.6-1.76,4.65-1.54,6.15.21,1.5,1.19,2.66,2.92,3.49,2.92,1.4,7,.03,12.25-4.12,5.24-4.14,12.73-11.8,22.47-22.97,3.53-4.03,7.6-8.93,12.22-14.7,5.15-6.32,9.16-10.95,12.04-13.9,2.87-2.95,5.86-4.94,8.95-5.99,3.09-1.04,6.43-.71,10,1,3.79,1.81,6.54,4.46,8.27,7.95,1.72,3.49,1.68,7.12-.13,10.91-1.35,2.82-3.17,5.3-5.47,7.46-2.3,2.16-5.49,4.72-9.57,7.69-3.81,2.96-6.92,5.5-9.33,7.61-2.41,2.11-4.66,4.52-6.76,7.24-4.93,6.69-8.56,12.47-10.89,17.34-1.97,4.12-3.04,7.46-3.21,10.04-.17,2.58.39,4.18,1.69,4.8,2.6,1.24,5.68.42,9.26-2.46,3.57-2.88,8.57-7.84,15-14.87l3.71-4.01c15.8-17.18,30.06-28.42,42.77-33.71,12.71-5.29,24.48-5.35,35.3-.17,7.14,3.42,11.8,7.87,13.96,13.37,2.16,5.49,2.02,10.78-.41,15.87-2.33,4.87-6.06,8.28-11.18,10.22-5.12,1.94-10.6,1.51-16.45-1.29-2.06-.98-3.58-1.91-4.56-2.78-.98-.87-1.91-1.91-2.79-3.13-.17-.21-.64-.74-1.44-1.58-.79-.84-1.89-1.61-3.3-2.28-4.66-2.23-9.27-2.24-13.85-.04-4.58,2.2-8.99,5.58-13.23,10.13-4.24,4.55-9.54,10.97-15.89,19.24-7.61,9.79-14.08,17.47-19.41,23.04-5.33,5.57-11.24,9.66-17.74,12.26-6.51,2.61-13.27,2.23-20.31-1.14-5.3-2.54-8.81-6.48-10.51-11.81-1.71-5.34-.66-11.96,3.12-19.86,1.76-3.68,3.61-6.85,5.55-9.52l.78-1.22c.52-1.08.69-2,.52-2.75-.18-.75-.64-1.3-1.4-1.67-.76-.36-1.72-.36-2.9.01-1.17.37-2.34,1.21-3.5,2.52-9.01,9.93-17.66,16.06-25.97,18.4-8.31,2.35-15.54,2.04-21.71-.91-5.2-2.49-8.48-7.02-9.86-13.6Z"/>
    <path class="cls-1" d="M717.04,1657.04c-1.7-5.61-1.4-12.39.88-20.35,2.49-8.65,6.81-17.18,12.97-25.58,6.16-8.41,13.53-14.84,22.12-19.3,8.59-4.46,17.55-5.35,26.89-2.67,3.92,1.13,6.74,2.4,8.45,3.83,1.71,1.43,3.06,3.03,4.05,4.81,1.13,1.7,2.22,2.7,3.26,3,1.15.33,2.23.39,3.23.18,1-.21,2.2-.61,3.62-1.21,1.86-.84,3.52-1.39,4.97-1.66,1.45-.27,3.16-.12,5.12.44,4.04,1.16,5.44,3.88,4.22,8.14-.53,1.85-1.41,3.59-2.63,5.24-1.22,1.65-2.92,3.65-5.1,6.03-.61.82-1.65,2.05-3.12,3.69-1.47,1.64-2.73,3.18-3.76,4.63-3.67,4.07-6,7.83-6.99,11.29-1.39,4.84.27,7.94,5.01,9.3,5.42,1.56,10.82-.08,16.2-4.9.99-.84,2.06-1.09,3.22-.76,1.5.43,2.66,1.51,3.47,3.24.81,1.73.76,3.09-.14,4.08l-6.54,7.11c-5.7,6.35-10.58,11.41-14.66,15.17-4.08,3.76-8.56,6.75-13.44,8.97-4.88,2.22-9.86,2.6-14.94,1.14-4.96-1.42-8.26-4.28-9.9-8.56-1.64-4.28-1.63-9.3.02-15.07.56-1.96,1.32-3.93,2.26-5.91l-.69-.2c-5.85,6.44-12.01,11.25-18.48,14.45-6.48,3.2-12.6,3.96-18.36,2.31-5.77-1.66-9.5-5.29-11.2-10.9ZM764.34,1636.82c2.79-1.01,5.18-2.6,7.18-4.77,2-2.17,3.34-4.47,4.04-6.89.83-2.88.67-5.36-.48-7.44-1.15-2.08-3.11-3.52-5.88-4.31-4.27-1.23-8.27-.56-11.99,1.98-3.73,2.55-6.17,5.84-7.33,9.88-.83,2.88-.7,5.39.37,7.5,1.08,2.12,2.94,3.56,5.59,4.32,2.88.83,5.72.74,8.51-.27Z"/>
    <path class="cls-1" d="M893.36,1651.87c1.66.27,2.99,1.22,4.01,2.84,1.01,1.62,1.07,2.97.16,4.04l-4.44,6.03c-4.43,6.33-8.63,11.79-12.6,16.37-3.97,4.58-8.74,8.49-14.3,11.72-5.57,3.23-11.44,4.34-17.59,3.34-6.75-1.09-11.41-3.7-13.96-7.83-2.55-4.12-3.41-8.79-2.56-14,.69-4.26,2.06-8.39,4.11-12.37,2.04-3.98,4.76-8.56,8.15-13.72,2.27-3.52,3.94-6.29,5-8.31,1.06-2.02,1.71-3.79,1.96-5.34.19-1.18-.34-2.79-1.59-4.82-1.25-2.03-3.38-3.89-6.39-5.6-2.88,4.27-8.21,11.98-15.97,23.12-.67,1.11-1.71,1.54-3.13,1.32-1.3-.21-2.49-.92-3.57-2.13-1.08-1.21-1.52-2.4-1.33-3.59.1-.59.35-1.04.76-1.33,3.93-3.98,8.8-11.16,14.62-21.52-1.78-1.02-3.06-2.35-3.82-3.99-.77-1.64-.91-3.95-.43-6.91.63-3.91,2.74-7.31,6.3-10.19,3.57-2.88,7.6-3.96,12.1-3.23,5.33.87,10.46,2.79,15.38,5.78,4.92,2.99,8.78,6.38,11.57,10.18,2.79,3.8,3.92,7.29,3.4,10.49-.37,2.25-1.04,4.33-2.02,6.24-.98,1.91-2.29,4.19-3.94,6.84-1.81,2.87-3.21,5.35-4.21,7.43-1.01,2.09-1.71,4.37-2.12,6.86-.42,2.61.12,4.85,1.64,6.74,1.52,1.89,4.17,3.14,7.96,3.75,2.49.4,4.77.01,6.85-1.17,2.08-1.18,4.37-3.15,6.88-5.9.88-.95,1.92-1.33,3.1-1.14Z"/>
    <path class="cls-1" d="M891.65,1700.84c-2.31-2.48-3.45-5.64-3.41-9.49.13-12.48,2.24-24.52,6.32-36.12,4.46-12.91,8.49-22.89,12.1-29.94,3.61-7.04,7.04-10.55,10.28-10.51,1.92.02,3.32.67,4.21,1.93s1.32,2.92,1.3,4.96c-.02,1.92.35,3.49,1.12,4.69.77,1.21,1.75,1.82,2.95,1.83,1.68.02,3.55-.98,5.61-3,7.15-6.76,14.44-10.11,21.89-10.03,4.2.04,7.61,1.1,10.23,3.17,2.62,2.07,4.39,4.85,5.31,8.34.35,1.32.88,1.99,1.6,2,.72,0,1.69-.64,2.9-1.95,7.16-7.72,14.94-11.54,23.34-11.46,6.6.07,11.44,1.65,14.53,4.74,3.09,3.09,4.61,7.1,4.55,12.02-.02,2.16-.29,4.11-.78,5.84-.5,1.74-1.24,3.98-2.23,6.73-.99,2.39-1.73,4.42-2.22,6.1-.5,1.68-.76,3.53-.78,5.57-.03,3.12.66,5.47,2.09,7.04,1.42,1.58,3.63,2.38,6.64,2.41,2.52.03,4.72-.73,6.59-2.27,1.88-1.54,3.85-3.8,5.92-6.78.73-1.07,1.7-1.6,2.9-1.59,1.68.02,3.14.75,4.39,2.21,1.24,1.45,1.5,2.78.77,3.97l-3.49,6.62c-3.43,6.93-6.77,12.95-10,18.08-3.23,5.13-7.36,9.71-12.38,13.73-5.02,4.03-10.66,6.01-16.89,5.94-5.4-.06-9.31-1.87-11.73-5.43-2.42-3.56-3.6-8.17-3.55-13.81.04-3.48.49-6.86,1.37-10.16.87-3.29,2.05-7.03,3.54-11.21.25-.72.8-2.42,1.67-5.11.87-2.69,1.31-4.87,1.33-6.56.02-2.04-.56-3.61-1.75-4.7-1.19-1.09-2.86-1.65-5.02-1.67-3.36-.04-6.56,1.34-9.58,4.13-3.03,2.79-5.47,6.4-7.31,10.81-1.85,4.42-2.79,8.85-2.84,13.29-.02,1.68.2,3.72.66,6.13,0,.48.08,1.29.24,2.43.17,1.14.24,2.37.23,3.69-.05,4.8-1.26,8.9-3.64,12.29-2.38,3.39-6.56,5.06-12.56,5-9.6-.1-14.34-5.37-14.24-15.81.04-3.36.52-6.62,1.45-9.8.93-3.17,2.26-6.91,3.99-11.21,1.36-3.46,2.34-6.21,2.97-8.25.62-2.03.94-3.95.96-5.75.05-4.68-2.21-7.04-6.77-7.09-3.36-.04-6.56,1.4-9.59,4.31-3.03,2.91-5.47,6.72-7.32,11.44-1.85,4.72-2.8,9.72-2.86,15l-.08,8.1c-.06,5.64-1.19,10.22-3.38,13.74-2.2,3.52-6.18,5.25-11.94,5.19-4.08-.04-7.28-1.31-9.59-3.79Z"/>
    <path class="cls-1" d="M1125.67,1638.91c1.66-.25,3.23.12,4.72,1.11,1.48.99,1.98,2.25,1.48,3.78-2.27,7.51-5.48,13.94-9.65,19.3-4.17,5.36-10.11,8.62-17.82,9.79l-1.07.16c-3.34,6.82-7.5,12.42-12.48,16.81-4.98,4.39-10.26,7.01-15.83,7.85-4.75.72-8.79.05-12.13-1.99-3.34-2.04-5.4-5.61-6.17-10.72-.3-2.02-.43-3.64-.37-4.86l-.11-.71c-.13-.83-.4-1.42-.82-1.79-.42-.36-.93-.5-1.52-.41-1.42.21-2.27,1.44-2.54,3.66l-.25,6.77c-.59,11.38-1.23,20.36-1.93,26.96-.7,6.6-2.02,12.32-3.96,17.16-1.94,4.84-4.69,7.54-8.25,8.07-8.3,1.25-13.08-2.21-14.31-10.4-.59-3.92-.38-8.77.62-14.57,1.01-5.79,2.87-14.54,5.59-26.24l3.2-13.77,4.26-21.21.71-3.75c2.24-12.47,3.92-21.07,5.02-25.79,1.11-4.72,2.41-8.13,3.91-10.24,1.5-2.11,3.74-3.38,6.7-3.83,5.46-.82,8.14.84,8.03,4.98,0,.85.25,1.48.74,1.89.49.41,1.14.56,1.98.43,1.18-.18,2.23-.88,3.14-2.11,2.44-3.16,4.97-5.45,7.61-6.88,2.63-1.43,5.56-2.39,8.76-2.87,7.12-1.08,13.15.5,18.1,4.73,4.95,4.23,8.05,10.5,9.3,18.8,1.09,7.24,1.07,14.71-.07,22.4,5.46-.83,9.76-4.45,12.92-10.87.35-.9,1.17-1.45,2.48-1.65ZM1080.2,1656.61c2.05-2.07,3.53-4.51,4.45-7.32.91-2.81,1.18-5.46.8-7.95-.41-2.73-1.55-4.86-3.42-6.4-1.87-1.54-4.47-2.05-7.79-1.55-4.15.63-7.37,2.87-9.63,6.73-2.27,3.86-3.09,7.87-2.46,12.02.43,2.85,1.52,5.05,3.27,6.6,1.75,1.56,4.23,2.09,7.43,1.61,2.85-.43,5.3-1.68,7.35-3.75Z"/>
    <path class="cls-1" d="M1139.37,1679.41c-4.4-3.86-7.74-9.78-10-17.74-2.46-8.66-3.3-18.18-2.51-28.57.79-10.39,3.65-19.75,8.58-28.08,4.93-8.33,12.07-13.82,21.42-16.48,3.92-1.12,6.99-1.52,9.2-1.21,2.21.31,4.2.96,5.98,1.95,1.86.85,3.31,1.12,4.35.82,1.15-.33,2.1-.85,2.83-1.55.74-.71,1.55-1.69,2.44-2.94,1.14-1.7,2.25-3.04,3.34-4.04,1.09-.99,2.61-1.77,4.58-2.33,4.04-1.15,6.67.42,7.88,4.68.53,1.85.7,3.79.54,5.84-.17,2.04-.55,4.65-1.15,7.81-.08,1.02-.32,2.62-.7,4.78-.38,2.17-.63,4.14-.75,5.92-.96,5.39-.95,9.81.03,13.28,1.38,4.85,4.43,6.6,9.17,5.25,5.42-1.54,9.15-5.78,11.17-12.72.4-1.24,1.17-2.02,2.33-2.35,1.5-.43,3.05-.12,4.66.92,1.61,1.04,2.28,2.22,2.04,3.54l-1.79,9.49c-1.48,8.41-2.95,15.28-4.43,20.63-1.47,5.35-3.7,10.25-6.67,14.71-2.97,4.47-7,7.42-12.08,8.86-4.96,1.41-9.27.74-12.93-2.03-3.66-2.76-6.3-7.03-7.94-12.81-.56-1.96-.96-4.03-1.2-6.21l-.69.2c-1.56,8.56-4.25,15.9-8.05,22.03-3.81,6.14-8.6,10.02-14.37,11.66-5.77,1.64-10.86.53-15.26-3.33ZM1168.83,1637.25c1.83-2.33,3.02-4.94,3.57-7.85.55-2.9.48-5.56-.21-7.99-.82-2.88-2.27-4.9-4.34-6.06-2.08-1.15-4.5-1.34-7.27-.55-4.27,1.21-7.31,3.89-9.13,8.02-1.82,4.14-2.15,8.22-1.01,12.26.82,2.89,2.25,4.95,4.28,6.18,2.03,1.23,4.38,1.47,7.03.71,2.88-.82,5.24-2.39,7.08-4.72Z"/>
    <path class="cls-1" d="M1332.82,1560.31c1.53-.7,3.14-.77,4.84-.23,1.7.55,2.52,1.62,2.46,3.23-.13,7.84-1.46,14.9-4,21.2-2.54,6.3-7.36,11.06-14.46,14.29-1.75.8-3.59,1.24-5.53,1.33-3.58,17.06-9.63,27.52-18.14,31.4-3.5,1.59-7.12,1.3-10.88-.88-3.76-2.18-7.4-7.14-10.93-14.9-.55-1.2-1.56-3.71-3.03-7.52.58,12-.7,21.42-3.85,28.25-3.15,6.84-7.35,11.45-12.59,13.84-6.12,2.78-11.96,2.18-17.53-1.81-5.57-3.99-10.22-10.08-13.95-18.27-2.53-5.57-4.34-11.28-5.42-17.12-2.08-10.65-2.79-20.68-2.12-30.08.67-9.4,3.07-15.04,7.22-16.93,3.38-1.54,6.07-.13,8.06,4.24.94,2.08,1.61,4.34,2.01,6.8.39,2.46.83,5.82,1.32,10.08.58,4.75,1.06,8.35,1.46,10.81.39,2.46,1.09,4.78,2.08,6.96,1.44,3.17,3.34,5.3,5.69,6.41,2.35,1.11,4.94,1.01,7.78-.28,3.71-1.69,6.09-4.36,7.14-8,1.04-3.64,1.14-7.7.28-12.19-.46-2.16-1.09-4.28-1.9-6.35-.81-2.07-1.34-3.38-1.59-3.93-2.14-4.69-3.48-8.96-4.04-12.79-.72-5.34-.34-9.37,1.13-12.08,1.47-2.71,4.17-4.96,8.1-6.75,6.88-3.13,12.01-.98,15.39,6.44.8,1.75,1.28,3.83,1.46,6.26.18,2.42.2,5.38.08,8.86.06,4.19.17,7.41.33,9.64.16,2.24.64,4.23,1.43,5.97,1.44,3.17,3.34,5.3,5.69,6.41,2.35,1.11,4.94,1.01,7.78-.28,5.24-2.39,8.57-6.67,9.98-12.85-3.58-4.96-6.36-9.63-8.35-14-3.53-7.75-5.04-14.78-4.55-21.07.5-6.29,3.42-10.65,8.78-13.09,5.79-2.63,10.35-.29,13.68,7.03,1.84,4.04,3.14,9.45,3.92,16.21.77,6.77.95,14.47.52,23.1.71-.19,1.66-.56,2.86-1.1,5.02-2.29,8.17-6.95,9.45-13.99.09-.96.73-1.72,1.94-2.26Z"/>
    <path class="cls-1" d="M1354.43,1595.9c-2.78-4.34-4.06-9.34-3.82-14.98.24-5.64,1.22-11.11,2.95-16.42,1.73-5.31,4.12-11.58,7.19-18.82,2.4-5.81,4.05-10.25,4.94-13.32.89-3.06.91-5.25.07-6.56-1.81-2.83-5.09-2.72-9.84.32-4.85,3.11-8.28,7.26-10.29,12.47-2.01,5.21-2.92,11.74-2.73,19.6l-9.25.58c-.16-6.03-.86-12.02-2.12-17.99-1.25-5.96-3.32-12.87-6.21-20.71-.72-2.24-.98-4.04-.77-5.38.21-1.34.97-2.44,2.28-3.28,1.52-.97,2.74-1.4,3.67-1.28.93.12,2.02.49,3.28,1.11.82.62,1.59.98,2.3,1.09.71.11,1.53-.12,2.43-.7,1.11-.71,2.25-1.94,3.41-3.68,1.23-1.64,2.39-3.06,3.47-4.25,1.09-1.19,2.64-2.44,4.66-3.73,2.22-1.42,4.42-2.62,6.58-3.57,2.16-.96,3.48-1.51,3.95-1.67,3.62-1.46,6.29-2.75,8.01-3.85,3.23-2.07,6.05-4.8,8.44-8.18.14-.23.36-.44.66-.64.71-.45,1.47-.55,2.28-.28.81.27,1.34.82,1.59,1.65,2.62,5.88,3.85,11.75,3.7,17.62-.16,5.87-1.01,11.16-2.56,15.86-1.55,4.7-3.59,9.86-6.13,15.46-1.7,3.8-2.84,6.63-3.43,8.5-.59,1.87-.58,3.26,0,4.17.78,1.21,2.26,1.58,4.45,1.11,2.19-.47,5.1-1.88,8.74-4.21,4.65-2.98,8.36-6.92,11.13-11.83,2.77-4.91,4.24-9.91,4.39-15,0-3.13.79-5.21,2.41-6.25.81-.52,1.77-.56,2.9-.15,1.12.42,2.04,1.19,2.75,2.3.52.81.91,1.98,1.18,3.52.82,8.17,1.27,15.72,1.36,22.64.09,6.93-1.16,14.43-3.76,22.5-2.6,8.08-7.43,14.38-14.5,18.91-3.44,2.2-6.27,3.45-8.51,3.74-2.24.29-4.65.2-7.23-.28-1.76-.3-3.19-.42-4.29-.35-1.1.06-2.36.55-3.77,1.45-2.42,1.55-3.98,3.08-4.65,4.58-.68,1.5-1.14,3.4-1.38,5.69-.1,1.63-.32,2.95-.67,3.96-.35,1.01-1.19,1.94-2.5,2.77-1.92,1.23-4.17-.17-6.76-4.22Z"/>
  </g>
</svg>